<mxfile host="app.diagrams.net" modified="2024-03-08T11:16:47.022Z" agent="Mozilla/5.0 (Windows NT 10.0; Win64; x64) AppleWebKit/537.36 (KHTML, like Gecko) Chrome/122.0.0.0 Safari/537.36" etag="ZR_vhfmQL1ouuMLwNMmO" version="24.0.1" type="github">
  <diagram name="Page-1" id="9XUsnjwGaCakIusq-Zvh">
    <mxGraphModel dx="1120" dy="1603" grid="1" gridSize="10" guides="1" tooltips="1" connect="1" arrows="1" fold="1" page="1" pageScale="1" pageWidth="827" pageHeight="1169" math="0" shadow="0">
      <root>
        <mxCell id="0" />
        <mxCell id="1" parent="0" />
        <mxCell id="iLV1xjN56b3U8wXnX9Ma-6" style="edgeStyle=orthogonalEdgeStyle;rounded=0;orthogonalLoop=1;jettySize=auto;html=1;entryX=0.5;entryY=1;entryDx=0;entryDy=0;" parent="1" source="iLV1xjN56b3U8wXnX9Ma-1" target="iLV1xjN56b3U8wXnX9Ma-3" edge="1">
          <mxGeometry relative="1" as="geometry" />
        </mxCell>
        <mxCell id="iLV1xjN56b3U8wXnX9Ma-7" style="edgeStyle=orthogonalEdgeStyle;rounded=0;orthogonalLoop=1;jettySize=auto;html=1;exitX=1;exitY=0.5;exitDx=0;exitDy=0;" parent="1" source="iLV1xjN56b3U8wXnX9Ma-1" target="iLV1xjN56b3U8wXnX9Ma-2" edge="1">
          <mxGeometry relative="1" as="geometry" />
        </mxCell>
        <mxCell id="iLV1xjN56b3U8wXnX9Ma-1" value="SAFARICOM" style="ellipse;whiteSpace=wrap;html=1;" parent="1" vertex="1">
          <mxGeometry x="110" y="320" width="120" height="80" as="geometry" />
        </mxCell>
        <mxCell id="iLV1xjN56b3U8wXnX9Ma-20" style="edgeStyle=orthogonalEdgeStyle;rounded=0;orthogonalLoop=1;jettySize=auto;html=1;exitX=1;exitY=0.5;exitDx=0;exitDy=0;entryX=0;entryY=0.5;entryDx=0;entryDy=0;" parent="1" source="iLV1xjN56b3U8wXnX9Ma-2" target="iLV1xjN56b3U8wXnX9Ma-15" edge="1">
          <mxGeometry relative="1" as="geometry" />
        </mxCell>
        <mxCell id="iLV1xjN56b3U8wXnX9Ma-21" style="edgeStyle=orthogonalEdgeStyle;rounded=0;orthogonalLoop=1;jettySize=auto;html=1;exitX=1;exitY=0.5;exitDx=0;exitDy=0;entryX=0;entryY=0.5;entryDx=0;entryDy=0;" parent="1" source="iLV1xjN56b3U8wXnX9Ma-2" target="iLV1xjN56b3U8wXnX9Ma-9" edge="1">
          <mxGeometry relative="1" as="geometry" />
        </mxCell>
        <mxCell id="iLV1xjN56b3U8wXnX9Ma-26" style="edgeStyle=orthogonalEdgeStyle;rounded=0;orthogonalLoop=1;jettySize=auto;html=1;exitX=1;exitY=0.5;exitDx=0;exitDy=0;entryX=0;entryY=0.5;entryDx=0;entryDy=0;" parent="1" source="iLV1xjN56b3U8wXnX9Ma-2" target="iLV1xjN56b3U8wXnX9Ma-16" edge="1">
          <mxGeometry relative="1" as="geometry" />
        </mxCell>
        <mxCell id="RPdVKIkfysECeG3BsUjT-7" style="edgeStyle=orthogonalEdgeStyle;rounded=0;orthogonalLoop=1;jettySize=auto;html=1;exitX=1;exitY=0.5;exitDx=0;exitDy=0;entryX=0;entryY=0.5;entryDx=0;entryDy=0;" parent="1" source="iLV1xjN56b3U8wXnX9Ma-2" target="iLV1xjN56b3U8wXnX9Ma-13" edge="1">
          <mxGeometry relative="1" as="geometry" />
        </mxCell>
        <mxCell id="iLV1xjN56b3U8wXnX9Ma-2" value="M-PESA" style="ellipse;whiteSpace=wrap;html=1;" parent="1" vertex="1">
          <mxGeometry x="350" y="505" width="120" height="80" as="geometry" />
        </mxCell>
        <mxCell id="iLV1xjN56b3U8wXnX9Ma-18" style="edgeStyle=orthogonalEdgeStyle;rounded=0;orthogonalLoop=1;jettySize=auto;html=1;exitX=1;exitY=0.5;exitDx=0;exitDy=0;entryX=0;entryY=0.5;entryDx=0;entryDy=0;" parent="1" source="iLV1xjN56b3U8wXnX9Ma-3" target="iLV1xjN56b3U8wXnX9Ma-11" edge="1">
          <mxGeometry relative="1" as="geometry" />
        </mxCell>
        <mxCell id="iLV1xjN56b3U8wXnX9Ma-19" style="edgeStyle=orthogonalEdgeStyle;rounded=0;orthogonalLoop=1;jettySize=auto;html=1;exitX=1;exitY=0.5;exitDx=0;exitDy=0;entryX=0;entryY=0.5;entryDx=0;entryDy=0;" parent="1" source="iLV1xjN56b3U8wXnX9Ma-3" target="iLV1xjN56b3U8wXnX9Ma-8" edge="1">
          <mxGeometry relative="1" as="geometry" />
        </mxCell>
        <mxCell id="iLV1xjN56b3U8wXnX9Ma-3" value="Safaricom+" style="ellipse;whiteSpace=wrap;html=1;" parent="1" vertex="1">
          <mxGeometry x="350" y="120" width="120" height="80" as="geometry" />
        </mxCell>
        <mxCell id="jO9whwv2kClf-yqsnF8u-6" style="edgeStyle=orthogonalEdgeStyle;rounded=0;orthogonalLoop=1;jettySize=auto;html=1;exitX=1;exitY=0.5;exitDx=0;exitDy=0;entryX=0;entryY=0.5;entryDx=0;entryDy=0;" parent="1" source="iLV1xjN56b3U8wXnX9Ma-8" target="jO9whwv2kClf-yqsnF8u-2" edge="1">
          <mxGeometry relative="1" as="geometry" />
        </mxCell>
        <mxCell id="jO9whwv2kClf-yqsnF8u-7" style="edgeStyle=orthogonalEdgeStyle;rounded=0;orthogonalLoop=1;jettySize=auto;html=1;exitX=1;exitY=0.5;exitDx=0;exitDy=0;entryX=0;entryY=0.5;entryDx=0;entryDy=0;" parent="1" source="iLV1xjN56b3U8wXnX9Ma-8" target="jO9whwv2kClf-yqsnF8u-3" edge="1">
          <mxGeometry relative="1" as="geometry" />
        </mxCell>
        <mxCell id="jO9whwv2kClf-yqsnF8u-8" style="edgeStyle=orthogonalEdgeStyle;rounded=0;orthogonalLoop=1;jettySize=auto;html=1;exitX=1;exitY=0.5;exitDx=0;exitDy=0;entryX=0;entryY=0.5;entryDx=0;entryDy=0;" parent="1" source="iLV1xjN56b3U8wXnX9Ma-8" target="jO9whwv2kClf-yqsnF8u-1" edge="1">
          <mxGeometry relative="1" as="geometry" />
        </mxCell>
        <mxCell id="RPdVKIkfysECeG3BsUjT-37" style="edgeStyle=orthogonalEdgeStyle;rounded=0;orthogonalLoop=1;jettySize=auto;html=1;exitX=1;exitY=0.5;exitDx=0;exitDy=0;entryX=0;entryY=0.5;entryDx=0;entryDy=0;" parent="1" source="iLV1xjN56b3U8wXnX9Ma-8" target="jO9whwv2kClf-yqsnF8u-4" edge="1">
          <mxGeometry relative="1" as="geometry" />
        </mxCell>
        <mxCell id="iLV1xjN56b3U8wXnX9Ma-8" value="My Account" style="ellipse;whiteSpace=wrap;html=1;" parent="1" vertex="1">
          <mxGeometry x="580" y="-460" width="120" height="80" as="geometry" />
        </mxCell>
        <mxCell id="RPdVKIkfysECeG3BsUjT-10" style="edgeStyle=orthogonalEdgeStyle;rounded=0;orthogonalLoop=1;jettySize=auto;html=1;exitX=1;exitY=0.5;exitDx=0;exitDy=0;entryX=0;entryY=0.5;entryDx=0;entryDy=0;" parent="1" source="iLV1xjN56b3U8wXnX9Ma-9" target="RPdVKIkfysECeG3BsUjT-8" edge="1">
          <mxGeometry relative="1" as="geometry" />
        </mxCell>
        <mxCell id="RPdVKIkfysECeG3BsUjT-11" style="edgeStyle=orthogonalEdgeStyle;rounded=0;orthogonalLoop=1;jettySize=auto;html=1;exitX=1;exitY=0.5;exitDx=0;exitDy=0;" parent="1" source="iLV1xjN56b3U8wXnX9Ma-9" target="RPdVKIkfysECeG3BsUjT-9" edge="1">
          <mxGeometry relative="1" as="geometry" />
        </mxCell>
        <mxCell id="iLV1xjN56b3U8wXnX9Ma-9" value="Withdraw Cash" style="ellipse;whiteSpace=wrap;html=1;" parent="1" vertex="1">
          <mxGeometry x="580" y="505" width="120" height="80" as="geometry" />
        </mxCell>
        <mxCell id="iLV1xjN56b3U8wXnX9Ma-10" value="Lipa na M-PESA" style="ellipse;whiteSpace=wrap;html=1;" parent="1" vertex="1">
          <mxGeometry x="580" y="2360" width="120" height="80" as="geometry" />
        </mxCell>
        <mxCell id="iLV1xjN56b3U8wXnX9Ma-11" value="M-Banking Services" style="ellipse;whiteSpace=wrap;html=1;" parent="1" vertex="1">
          <mxGeometry x="580" y="180" width="120" height="80" as="geometry" />
        </mxCell>
        <mxCell id="RPdVKIkfysECeG3BsUjT-24" style="edgeStyle=orthogonalEdgeStyle;rounded=0;orthogonalLoop=1;jettySize=auto;html=1;exitX=1;exitY=0.5;exitDx=0;exitDy=0;" parent="1" source="iLV1xjN56b3U8wXnX9Ma-13" target="RPdVKIkfysECeG3BsUjT-23" edge="1">
          <mxGeometry relative="1" as="geometry" />
        </mxCell>
        <mxCell id="iLV1xjN56b3U8wXnX9Ma-13" value="Buy Airtime" style="ellipse;whiteSpace=wrap;html=1;" parent="1" vertex="1">
          <mxGeometry x="580" y="710" width="120" height="80" as="geometry" />
        </mxCell>
        <mxCell id="RPdVKIkfysECeG3BsUjT-38" style="edgeStyle=orthogonalEdgeStyle;rounded=0;orthogonalLoop=1;jettySize=auto;html=1;exitX=1;exitY=0.5;exitDx=0;exitDy=0;entryX=0;entryY=0.5;entryDx=0;entryDy=0;" parent="1" source="iLV1xjN56b3U8wXnX9Ma-14" target="RPdVKIkfysECeG3BsUjT-25" edge="1">
          <mxGeometry relative="1" as="geometry" />
        </mxCell>
        <mxCell id="RPdVKIkfysECeG3BsUjT-44" style="edgeStyle=orthogonalEdgeStyle;rounded=0;orthogonalLoop=1;jettySize=auto;html=1;exitX=1;exitY=0.5;exitDx=0;exitDy=0;entryX=0;entryY=0.5;entryDx=0;entryDy=0;" parent="1" source="iLV1xjN56b3U8wXnX9Ma-14" target="RPdVKIkfysECeG3BsUjT-27" edge="1">
          <mxGeometry relative="1" as="geometry" />
        </mxCell>
        <mxCell id="iLV1xjN56b3U8wXnX9Ma-14" value="Loans and Savings" style="ellipse;whiteSpace=wrap;html=1;" parent="1" vertex="1">
          <mxGeometry x="580" y="1700" width="120" height="80" as="geometry" />
        </mxCell>
        <mxCell id="RPdVKIkfysECeG3BsUjT-2" style="edgeStyle=orthogonalEdgeStyle;rounded=0;orthogonalLoop=1;jettySize=auto;html=1;exitX=1;exitY=0.5;exitDx=0;exitDy=0;entryX=0;entryY=0.5;entryDx=0;entryDy=0;" parent="1" source="iLV1xjN56b3U8wXnX9Ma-15" target="RPdVKIkfysECeG3BsUjT-1" edge="1">
          <mxGeometry relative="1" as="geometry" />
        </mxCell>
        <mxCell id="iLV1xjN56b3U8wXnX9Ma-15" value="Send Money" style="ellipse;whiteSpace=wrap;html=1;" parent="1" vertex="1">
          <mxGeometry x="580" y="340" width="120" height="80" as="geometry" />
        </mxCell>
        <mxCell id="iLV1xjN56b3U8wXnX9Ma-16" value="My Account" style="ellipse;whiteSpace=wrap;html=1;" parent="1" vertex="1">
          <mxGeometry x="580" y="2790" width="120" height="80" as="geometry" />
        </mxCell>
        <mxCell id="iLV1xjN56b3U8wXnX9Ma-23" style="edgeStyle=orthogonalEdgeStyle;rounded=0;orthogonalLoop=1;jettySize=auto;html=1;exitX=1;exitY=0.5;exitDx=0;exitDy=0;entryX=0;entryY=0.619;entryDx=0;entryDy=0;entryPerimeter=0;" parent="1" source="iLV1xjN56b3U8wXnX9Ma-2" target="iLV1xjN56b3U8wXnX9Ma-14" edge="1">
          <mxGeometry relative="1" as="geometry" />
        </mxCell>
        <mxCell id="iLV1xjN56b3U8wXnX9Ma-24" style="edgeStyle=orthogonalEdgeStyle;rounded=0;orthogonalLoop=1;jettySize=auto;html=1;exitX=1;exitY=0.5;exitDx=0;exitDy=0;entryX=0;entryY=0.666;entryDx=0;entryDy=0;entryPerimeter=0;" parent="1" source="iLV1xjN56b3U8wXnX9Ma-2" target="iLV1xjN56b3U8wXnX9Ma-10" edge="1">
          <mxGeometry relative="1" as="geometry" />
        </mxCell>
        <mxCell id="jO9whwv2kClf-yqsnF8u-1" value="Balance Enquiry" style="ellipse;whiteSpace=wrap;html=1;" parent="1" vertex="1">
          <mxGeometry x="750" y="-664" width="120" height="80" as="geometry" />
        </mxCell>
        <mxCell id="jO9whwv2kClf-yqsnF8u-2" value="Top-Up" style="ellipse;whiteSpace=wrap;html=1;" parent="1" vertex="1">
          <mxGeometry x="750" y="-530" width="120" height="80" as="geometry" />
        </mxCell>
        <mxCell id="jO9whwv2kClf-yqsnF8u-3" value="Customer Care" style="ellipse;whiteSpace=wrap;html=1;" parent="1" vertex="1">
          <mxGeometry x="750" y="-30" width="120" height="80" as="geometry" />
        </mxCell>
        <mxCell id="jO9whwv2kClf-yqsnF8u-4" value="Selfcare" style="ellipse;whiteSpace=wrap;html=1;" parent="1" vertex="1">
          <mxGeometry x="750" y="-160" width="120" height="80" as="geometry" />
        </mxCell>
        <mxCell id="RPdVKIkfysECeG3BsUjT-5" style="edgeStyle=orthogonalEdgeStyle;rounded=0;orthogonalLoop=1;jettySize=auto;html=1;exitX=1;exitY=0.5;exitDx=0;exitDy=0;entryX=0;entryY=0.5;entryDx=0;entryDy=0;" parent="1" source="RPdVKIkfysECeG3BsUjT-1" target="RPdVKIkfysECeG3BsUjT-3" edge="1">
          <mxGeometry relative="1" as="geometry" />
        </mxCell>
        <mxCell id="RPdVKIkfysECeG3BsUjT-1" value="Enter phone no." style="rounded=1;whiteSpace=wrap;html=1;" parent="1" vertex="1">
          <mxGeometry x="800" y="350" width="120" height="60" as="geometry" />
        </mxCell>
        <mxCell id="RPdVKIkfysECeG3BsUjT-6" style="edgeStyle=orthogonalEdgeStyle;rounded=0;orthogonalLoop=1;jettySize=auto;html=1;exitX=1;exitY=0.5;exitDx=0;exitDy=0;entryX=0;entryY=0.5;entryDx=0;entryDy=0;" parent="1" source="RPdVKIkfysECeG3BsUjT-3" target="RPdVKIkfysECeG3BsUjT-4" edge="1">
          <mxGeometry relative="1" as="geometry" />
        </mxCell>
        <mxCell id="RPdVKIkfysECeG3BsUjT-3" value="Enter amount" style="rounded=1;whiteSpace=wrap;html=1;" parent="1" vertex="1">
          <mxGeometry x="1020" y="350" width="120" height="60" as="geometry" />
        </mxCell>
        <mxCell id="RPdVKIkfysECeG3BsUjT-4" value="Enter M-Pesa PIN" style="rounded=1;whiteSpace=wrap;html=1;" parent="1" vertex="1">
          <mxGeometry x="1241" y="350" width="120" height="60" as="geometry" />
        </mxCell>
        <mxCell id="RPdVKIkfysECeG3BsUjT-18" style="edgeStyle=orthogonalEdgeStyle;rounded=0;orthogonalLoop=1;jettySize=auto;html=1;exitX=1;exitY=0.5;exitDx=0;exitDy=0;" parent="1" source="RPdVKIkfysECeG3BsUjT-8" target="RPdVKIkfysECeG3BsUjT-13" edge="1">
          <mxGeometry relative="1" as="geometry" />
        </mxCell>
        <mxCell id="RPdVKIkfysECeG3BsUjT-8" value="From Agent" style="ellipse;whiteSpace=wrap;html=1;" parent="1" vertex="1">
          <mxGeometry x="800" y="450" width="120" height="80" as="geometry" />
        </mxCell>
        <mxCell id="RPdVKIkfysECeG3BsUjT-20" style="edgeStyle=orthogonalEdgeStyle;rounded=0;orthogonalLoop=1;jettySize=auto;html=1;exitX=1;exitY=0.5;exitDx=0;exitDy=0;entryX=0;entryY=0.5;entryDx=0;entryDy=0;" parent="1" source="RPdVKIkfysECeG3BsUjT-9" target="RPdVKIkfysECeG3BsUjT-14" edge="1">
          <mxGeometry relative="1" as="geometry" />
        </mxCell>
        <mxCell id="RPdVKIkfysECeG3BsUjT-9" value="From ATM" style="ellipse;whiteSpace=wrap;html=1;" parent="1" vertex="1">
          <mxGeometry x="800" y="580" width="120" height="80" as="geometry" />
        </mxCell>
        <mxCell id="RPdVKIkfysECeG3BsUjT-21" style="edgeStyle=orthogonalEdgeStyle;rounded=0;orthogonalLoop=1;jettySize=auto;html=1;exitX=1;exitY=0.5;exitDx=0;exitDy=0;entryX=0;entryY=0.5;entryDx=0;entryDy=0;" parent="1" source="RPdVKIkfysECeG3BsUjT-13" target="RPdVKIkfysECeG3BsUjT-15" edge="1">
          <mxGeometry relative="1" as="geometry" />
        </mxCell>
        <mxCell id="RPdVKIkfysECeG3BsUjT-13" value="Enter agent no." style="rounded=1;whiteSpace=wrap;html=1;" parent="1" vertex="1">
          <mxGeometry x="1010" y="460" width="120" height="60" as="geometry" />
        </mxCell>
        <mxCell id="RPdVKIkfysECeG3BsUjT-19" style="edgeStyle=orthogonalEdgeStyle;rounded=0;orthogonalLoop=1;jettySize=auto;html=1;exitX=1;exitY=0.5;exitDx=0;exitDy=0;entryX=0;entryY=0.5;entryDx=0;entryDy=0;" parent="1" source="RPdVKIkfysECeG3BsUjT-14" target="RPdVKIkfysECeG3BsUjT-16" edge="1">
          <mxGeometry relative="1" as="geometry" />
        </mxCell>
        <mxCell id="RPdVKIkfysECeG3BsUjT-14" value="Enter agent no." style="rounded=1;whiteSpace=wrap;html=1;" parent="1" vertex="1">
          <mxGeometry x="1010" y="590" width="120" height="60" as="geometry" />
        </mxCell>
        <mxCell id="RPdVKIkfysECeG3BsUjT-22" style="edgeStyle=orthogonalEdgeStyle;rounded=0;orthogonalLoop=1;jettySize=auto;html=1;exitX=1;exitY=0.5;exitDx=0;exitDy=0;entryX=0;entryY=0.5;entryDx=0;entryDy=0;" parent="1" source="RPdVKIkfysECeG3BsUjT-15" target="RPdVKIkfysECeG3BsUjT-17" edge="1">
          <mxGeometry relative="1" as="geometry" />
        </mxCell>
        <mxCell id="RPdVKIkfysECeG3BsUjT-15" value="Enter Store Number" style="rounded=1;whiteSpace=wrap;html=1;" parent="1" vertex="1">
          <mxGeometry x="1241" y="460" width="120" height="60" as="geometry" />
        </mxCell>
        <mxCell id="RPdVKIkfysECeG3BsUjT-49" style="edgeStyle=orthogonalEdgeStyle;rounded=0;orthogonalLoop=1;jettySize=auto;html=1;exitX=1;exitY=0.5;exitDx=0;exitDy=0;entryX=0;entryY=0.5;entryDx=0;entryDy=0;" parent="1" source="RPdVKIkfysECeG3BsUjT-16" target="RPdVKIkfysECeG3BsUjT-48" edge="1">
          <mxGeometry relative="1" as="geometry" />
        </mxCell>
        <mxCell id="RPdVKIkfysECeG3BsUjT-16" value="Enter amount" style="rounded=1;whiteSpace=wrap;html=1;" parent="1" vertex="1">
          <mxGeometry x="1241" y="590" width="120" height="60" as="geometry" />
        </mxCell>
        <mxCell id="RPdVKIkfysECeG3BsUjT-47" style="edgeStyle=orthogonalEdgeStyle;rounded=0;orthogonalLoop=1;jettySize=auto;html=1;exitX=1;exitY=0.5;exitDx=0;exitDy=0;" parent="1" source="RPdVKIkfysECeG3BsUjT-17" target="RPdVKIkfysECeG3BsUjT-46" edge="1">
          <mxGeometry relative="1" as="geometry" />
        </mxCell>
        <mxCell id="RPdVKIkfysECeG3BsUjT-17" value="Enter amount" style="rounded=1;whiteSpace=wrap;html=1;" parent="1" vertex="1">
          <mxGeometry x="1450" y="460" width="120" height="60" as="geometry" />
        </mxCell>
        <mxCell id="RPdVKIkfysECeG3BsUjT-51" style="edgeStyle=orthogonalEdgeStyle;rounded=0;orthogonalLoop=1;jettySize=auto;html=1;exitX=1;exitY=0.5;exitDx=0;exitDy=0;entryX=0;entryY=0.5;entryDx=0;entryDy=0;" parent="1" source="RPdVKIkfysECeG3BsUjT-23" target="RPdVKIkfysECeG3BsUjT-42" edge="1">
          <mxGeometry relative="1" as="geometry" />
        </mxCell>
        <mxCell id="RPdVKIkfysECeG3BsUjT-53" style="edgeStyle=orthogonalEdgeStyle;rounded=0;orthogonalLoop=1;jettySize=auto;html=1;exitX=1;exitY=0.5;exitDx=0;exitDy=0;entryX=0;entryY=0.5;entryDx=0;entryDy=0;" parent="1" source="RPdVKIkfysECeG3BsUjT-23" target="RPdVKIkfysECeG3BsUjT-43" edge="1">
          <mxGeometry relative="1" as="geometry" />
        </mxCell>
        <mxCell id="RPdVKIkfysECeG3BsUjT-23" value="Buy Airtime" style="ellipse;whiteSpace=wrap;html=1;" parent="1" vertex="1">
          <mxGeometry x="800" y="710" width="120" height="80" as="geometry" />
        </mxCell>
        <mxCell id="jvomU4i9vhobp2Hx7cu1-1" style="edgeStyle=orthogonalEdgeStyle;rounded=0;orthogonalLoop=1;jettySize=auto;html=1;exitX=1;exitY=0.5;exitDx=0;exitDy=0;entryX=0;entryY=0.5;entryDx=0;entryDy=0;" edge="1" parent="1" source="RPdVKIkfysECeG3BsUjT-25" target="RPdVKIkfysECeG3BsUjT-33">
          <mxGeometry relative="1" as="geometry" />
        </mxCell>
        <mxCell id="jvomU4i9vhobp2Hx7cu1-2" style="edgeStyle=orthogonalEdgeStyle;rounded=0;orthogonalLoop=1;jettySize=auto;html=1;exitX=1;exitY=0.5;exitDx=0;exitDy=0;entryX=0;entryY=0.5;entryDx=0;entryDy=0;" edge="1" parent="1" source="RPdVKIkfysECeG3BsUjT-25" target="RPdVKIkfysECeG3BsUjT-29">
          <mxGeometry relative="1" as="geometry" />
        </mxCell>
        <mxCell id="jvomU4i9vhobp2Hx7cu1-3" style="edgeStyle=orthogonalEdgeStyle;rounded=0;orthogonalLoop=1;jettySize=auto;html=1;exitX=1;exitY=0.5;exitDx=0;exitDy=0;entryX=0;entryY=0.5;entryDx=0;entryDy=0;" edge="1" parent="1" source="RPdVKIkfysECeG3BsUjT-25" target="RPdVKIkfysECeG3BsUjT-32">
          <mxGeometry relative="1" as="geometry" />
        </mxCell>
        <mxCell id="jvomU4i9vhobp2Hx7cu1-4" style="edgeStyle=orthogonalEdgeStyle;rounded=0;orthogonalLoop=1;jettySize=auto;html=1;exitX=1;exitY=0.5;exitDx=0;exitDy=0;entryX=0;entryY=0.5;entryDx=0;entryDy=0;" edge="1" parent="1" source="RPdVKIkfysECeG3BsUjT-25" target="RPdVKIkfysECeG3BsUjT-31">
          <mxGeometry relative="1" as="geometry" />
        </mxCell>
        <mxCell id="jvomU4i9vhobp2Hx7cu1-5" style="edgeStyle=orthogonalEdgeStyle;rounded=0;orthogonalLoop=1;jettySize=auto;html=1;exitX=1;exitY=0.5;exitDx=0;exitDy=0;entryX=0;entryY=0.5;entryDx=0;entryDy=0;" edge="1" parent="1" source="RPdVKIkfysECeG3BsUjT-25" target="RPdVKIkfysECeG3BsUjT-28">
          <mxGeometry relative="1" as="geometry" />
        </mxCell>
        <mxCell id="RPdVKIkfysECeG3BsUjT-25" value="MShwari" style="ellipse;whiteSpace=wrap;html=1;" parent="1" vertex="1">
          <mxGeometry x="780" y="1590" width="120" height="80" as="geometry" />
        </mxCell>
        <mxCell id="RPdVKIkfysECeG3BsUjT-27" value="KCB M-Pesa" style="ellipse;whiteSpace=wrap;html=1;" parent="1" vertex="1">
          <mxGeometry x="780" y="2120" width="120" height="80" as="geometry" />
        </mxCell>
        <mxCell id="RPdVKIkfysECeG3BsUjT-28" value="Send to MShwari" style="ellipse;whiteSpace=wrap;html=1;" parent="1" vertex="1">
          <mxGeometry x="1020" y="1180" width="120" height="80" as="geometry" />
        </mxCell>
        <mxCell id="RPdVKIkfysECeG3BsUjT-29" value="Check Balance" style="ellipse;whiteSpace=wrap;html=1;" parent="1" vertex="1">
          <mxGeometry x="1020" y="1753" width="120" height="80" as="geometry" />
        </mxCell>
        <mxCell id="RPdVKIkfysECeG3BsUjT-30" value="Mini Statement" style="ellipse;whiteSpace=wrap;html=1;" parent="1" vertex="1">
          <mxGeometry x="1020" y="1940" width="120" height="80" as="geometry" />
        </mxCell>
        <mxCell id="RPdVKIkfysECeG3BsUjT-31" value="Lock Savings Account" style="ellipse;whiteSpace=wrap;html=1;" parent="1" vertex="1">
          <mxGeometry x="1020" y="1440" width="120" height="80" as="geometry" />
        </mxCell>
        <mxCell id="RPdVKIkfysECeG3BsUjT-32" value="Loan @ 9% for 30 days" style="ellipse;whiteSpace=wrap;html=1;" parent="1" vertex="1">
          <mxGeometry x="1020" y="1590" width="120" height="80" as="geometry" />
        </mxCell>
        <mxCell id="RPdVKIkfysECeG3BsUjT-33" value="Withdraw from MShwari" style="ellipse;whiteSpace=wrap;html=1;" parent="1" vertex="1">
          <mxGeometry x="1020" y="1310" width="120" height="80" as="geometry" />
        </mxCell>
        <mxCell id="jvomU4i9vhobp2Hx7cu1-6" style="edgeStyle=orthogonalEdgeStyle;rounded=0;orthogonalLoop=1;jettySize=auto;html=1;exitX=1;exitY=0.5;exitDx=0;exitDy=0;entryX=0;entryY=0.5;entryDx=0;entryDy=0;" edge="1" parent="1" source="RPdVKIkfysECeG3BsUjT-42" target="RPdVKIkfysECeG3BsUjT-45">
          <mxGeometry relative="1" as="geometry" />
        </mxCell>
        <mxCell id="RPdVKIkfysECeG3BsUjT-42" value="My Phone" style="ellipse;whiteSpace=wrap;html=1;" parent="1" vertex="1">
          <mxGeometry x="1040" y="710" width="120" height="80" as="geometry" />
        </mxCell>
        <mxCell id="RPdVKIkfysECeG3BsUjT-57" style="edgeStyle=orthogonalEdgeStyle;rounded=0;orthogonalLoop=1;jettySize=auto;html=1;exitX=1;exitY=0.5;exitDx=0;exitDy=0;entryX=0;entryY=0.5;entryDx=0;entryDy=0;" parent="1" source="RPdVKIkfysECeG3BsUjT-43" target="RPdVKIkfysECeG3BsUjT-55" edge="1">
          <mxGeometry relative="1" as="geometry" />
        </mxCell>
        <mxCell id="RPdVKIkfysECeG3BsUjT-58" style="edgeStyle=orthogonalEdgeStyle;rounded=0;orthogonalLoop=1;jettySize=auto;html=1;exitX=1;exitY=0.5;exitDx=0;exitDy=0;entryX=0;entryY=0.5;entryDx=0;entryDy=0;" parent="1" source="RPdVKIkfysECeG3BsUjT-43" target="RPdVKIkfysECeG3BsUjT-54" edge="1">
          <mxGeometry relative="1" as="geometry" />
        </mxCell>
        <mxCell id="RPdVKIkfysECeG3BsUjT-43" value="Other Phone" style="ellipse;whiteSpace=wrap;html=1;" parent="1" vertex="1">
          <mxGeometry x="1040" y="890" width="120" height="80" as="geometry" />
        </mxCell>
        <mxCell id="jvomU4i9vhobp2Hx7cu1-7" style="edgeStyle=orthogonalEdgeStyle;rounded=0;orthogonalLoop=1;jettySize=auto;html=1;exitX=1;exitY=0.5;exitDx=0;exitDy=0;" edge="1" parent="1" source="RPdVKIkfysECeG3BsUjT-45" target="RPdVKIkfysECeG3BsUjT-52">
          <mxGeometry relative="1" as="geometry" />
        </mxCell>
        <mxCell id="RPdVKIkfysECeG3BsUjT-45" value="Enter amount" style="rounded=1;whiteSpace=wrap;html=1;" parent="1" vertex="1">
          <mxGeometry x="1240" y="720" width="120" height="60" as="geometry" />
        </mxCell>
        <mxCell id="RPdVKIkfysECeG3BsUjT-46" value="Enter M-Pesa PIN" style="rounded=1;whiteSpace=wrap;html=1;" parent="1" vertex="1">
          <mxGeometry x="1680" y="460" width="120" height="60" as="geometry" />
        </mxCell>
        <mxCell id="RPdVKIkfysECeG3BsUjT-48" value="Enter M-Pesa PIN" style="rounded=1;whiteSpace=wrap;html=1;" parent="1" vertex="1">
          <mxGeometry x="1450" y="590" width="120" height="60" as="geometry" />
        </mxCell>
        <mxCell id="RPdVKIkfysECeG3BsUjT-52" value="Enter M-Pesa PIN" style="rounded=1;whiteSpace=wrap;html=1;" parent="1" vertex="1">
          <mxGeometry x="1440" y="720" width="120" height="60" as="geometry" />
        </mxCell>
        <mxCell id="RPdVKIkfysECeG3BsUjT-54" value="Enter the phone no." style="ellipse;whiteSpace=wrap;html=1;" parent="1" vertex="1">
          <mxGeometry x="1240" y="1000" width="120" height="80" as="geometry" />
        </mxCell>
        <mxCell id="RPdVKIkfysECeG3BsUjT-55" value="Search From SIM Contacts" style="ellipse;whiteSpace=wrap;html=1;" parent="1" vertex="1">
          <mxGeometry x="1240" y="850" width="120" height="80" as="geometry" />
        </mxCell>
        <mxCell id="jvomU4i9vhobp2Hx7cu1-8" value="" style="shape=image;verticalLabelPosition=bottom;labelBackgroundColor=default;verticalAlign=top;aspect=fixed;imageAspect=0;image=data:image/jpeg,/9j/4AAQSkZJRgABAQAAAQABAAD/2wCEAAkGBxITEhISEhIVFRUQFRAVEBUVFRUVFRUVFRUXFhUVFRUYHSggGBolGxUVITEhJSkrLi4uFx8zODMsNygtLisBCgoKDg0OGhAQGi0lHyUtLS0tLS0tLS0tLS0tLS0tLS0tLS0tLS0tLS0tLS0tLS0tLS0tLS0tLS0tLS0tLS0tLf/AABEIAJ8BPgMBIgACEQEDEQH/xAAcAAACAgMBAQAAAAAAAAAAAAADBAIFAAEGBwj/xABFEAABAwICBwUEBgkDAwUAAAABAAIDBBESIQUGEzFBUWEHcYGRoRQiMlJiY5KxwdEVI0JDU9Lh8PFygqJzs8IXM0SDsv/EABoBAAMBAQEBAAAAAAAAAAAAAAIDBAEABQb/xAA4EQABBAAEAwMKBQQDAAAAAAABAAIDEQQSITETQVEFYYEGFCJxkaGxwdHwMlJyouEjQpLxNENi/9oADAMBAAIRAxEAPwDkrKLnWWOdZI1E68BjMy+WYwuKPJUIbZkkXFEYCn5GhU8IAKxiddNNiBSdKwqyjapZTR0Ucpo6IJphyQX0gT5UXBA2VwS2yOVU+lUBArJ7VoMVLXZgnCYpEU6PFAno4Cc7fgp7Ecx96EuF1aWZ+S3TBPMb0SjI+v8Afim2sA4+qhlq91FIbWpARwPkk5pU49w4PcP9xQZISeN+8BcwtbqVzCBuqqWVCurM6OvwHgT/AFWv0YeBT+M3qqxNGOaSYE3ExbfSlu/0Uo0BfeyBzwRoitYpGNTjCM1iUXqZz6Sbo0F8KtxAs9kQiUdVgnAVC+JKyRrpXUIPH0Sc2j+RH3fensmb1VEeJaqB7EBzVa1FMRkRZJvjVjDauZICki1aITLmIZYmBPDku4IbgmC1Dc1GCmNcgFDIRnBQIRgpoKHZYGqVltEiKxsaOyFRYUdhWOJGyU4lTZGEUBDajAqVxU7itVEiWwXW3uWMemAZQiaKCPBSXT8VCEvTzBWDJwpJHPUkz32tshAU1AzIL50oNc5T5XORy5ZdJmZTbKj4LkfDTVkxDT8Tu6pWJ6sqVwIIPePxSXlzBokvsIb4r8z3KJiA/ZPqn6h24jkEpIeqyORzhX1+SUHHYIGE/LbzR8JKjHDcjfvCaZFl5nzKB+ix7wEOOFNMgWgLDzWCY80gknZIJJRjAeSWc1F9oP8Ahb2gcOCEWFmyRqRkEBkd1YTMBQRDZNa/RNbJosiiT0EKBCm43ZJUjill1nVRwrd1hKG96XRSPUsN0tOVt70PaHd/hUNYRqnNad0uXXyyI5H4PLh3hKVNILFzdw+IHhfkeIVlss78DZDqRk7uH/cCoZJRGVUskoilROjQnRp5zEF7FaJFe16RkYlnhPytSUoT2m1VG60B6ESivQXJgVLVElaBWFaRJiICiselwVMFahITjXqe0CRD1raIDEl8K009QupOQyhWBEa9GbOUrdZdYQCsLAU4akrW2SeJSD12VZwwnGOTEZSLHo7JUBSnsKsY3pmKeyrGSpiNyU9odupHxjmrtkuIW8vyUcKSp32Vgx3FQPYWHRRPblUqY5jx+5MMPDoEKMZk9D+SLK4dR4eCQ/dTSOANlSe7L++aXNzw9ESWa3UDiC2332SslSN7C9w6ML//AME9OKNkTiLrTqdvavWw/YfaMrM4hIb+Z/oN9ry0HwKKQeVlhf3+ShFVPPwsaDzddv33PotFsr8i5rT0e5zfuCPhhp9JwHv+AI96pHZGHZ/yMbE39GaY+OQV+5GHRwHe4AKO2txb4OH9EuaZxyc9/hg/8g5bbSA/tE9+H/xCKof7iT4fyU9sHk/GKkmnk/QxjB+8kpr2qO3xPPcGn8SomtbwEh/2j8SVIUjd2FviCVKKnYN0cf2G/kl5oB/aT4j5BMbjfJlm2Dld+qSvc11Ift4+RxH+myga8fwh5H8002FnGNn2W3UvZGjNrR9lq3i4cf8AX+4p8fa/YQ/B2aD65XE+8H4pB1Zf90Psu/mQ/a7fux9l386to2RnIsF+Ra30QKujYNzIx3NaEQnhuuH+4qyLtnsFwt3ZwrudZ94b8Ug7SYtbC0dzD/Mhur2lpGedre7bcb8yVktKOF+4hpHr+aSnit5Zjhne1ud7eCrayB34W/H6r3uysL5K9rP4cUBY/fKS9p06ZXkGul3WpFIjndL/AGfu3nyUCQRcW8MwgrC83AzvhJdv6Yb9d67hgbJXlJ5I4XAYV2Lw73DKRbXGxqQNDvzvW77kKZISlO1DlXyFUs0C+JhGiC8oLkR6E5ParGrRKjdYVAokwBTut3Q7rLraW0p4ll1DEsuiXUrOVqAU5UBKOCnabFqVhsLV1C6mQo2Wpq0trS2AtXKTXIzChsamI2IHFLeQiRrt9BagVtQ0SWbE11i0yEtJHMNAJ8wEh2d6PZNXwMkALQXvLTucWsLgOuYGS9V7R9O1FJTsfTMBc+QMe9zS4RtIJvbqQBc5JsMDXNzv2RQwMe10jzoFyEnZnVtF2vhf0GMHwuLLmqqmlgkMczCx4zLXcuYO4jqF0ernaDViaMVT45InuDZDgawsByxAtsLDebjcrftH0pQ1FNeOoifPC5hiDXAuIc8Ne3LhY3/2rH4eGVhMaTLhsNLEXRGiORXEskuHYQ03+b8OB8VqRjj+8d0ALcI7uI4+anobQ9RUEiCMvtbEcg0d7jl4b10E3Z7WYbjAT8uIX9cvVec3DSu9KMeP+/kpsK7Gxi8Nbf8A01oDv8wM3gHLlJRGM3NY53zEBzvMp3RFNNPIIoQXOOe+zQBvJPAKsrNGzxTCCSNzJXFoa02zxGzcJ3EE8QvV+znVyalE7p2hr5Nm1gDmu91tyTdp4k/8U2HBmR9PB77+91kWCdiZrmtx5uNk+03r61Vf+ntRv2kV+I970NlyWkIXRSPicRijdhfY3Fx1Xc66VelY5nzQOEdLExlydkcTjvJa73t5At0XJ6O1WrarFMGf+85zy95awOLjckDfbwTMVg4wQ2JpzeJFeJTMZg4g4MhY7N40Qq+V9wD5oLZF0NZqPXRxkhoktnZrwXeAIF+4LjY53F2CxxE4bbjiva1ud1D5rIzRzV57sHJHo9tetXDpvespNlzPcfuTuk9VK2Fu2fELDADZ7XG7nBoAaDcm5G5MN1Nq2MdM9rWBrXFwdIA4AZknhu6rjgpq0YdlhwMuoyGwNqKc0PqrUVETZmlrWuxYbkgnCSNwvxBVRI4xvfGSCWOcx1sxcGxseIuusgrtLU1OLUkAjgYSXOkGLCBiJID9+8rz/RLZJn4WNdI+QucQ0XNybk9BnxT8Xgo2MblBzH166fVVYrCRxxs4Ydn579OQPf0VsS3eFj3Bwz4dd6vafUerLbkMaeRcL+lwqbS2i5qdwErC3F8Od2u7iMvBQPwc0YzOaQOqkkgxUYzPaQPVokHsbyPn/RVukw3IAG5tivvyxC33DxVzHC+SzYWPfI+9g1uQHPFewtzKej7Oa14LpMDXEGzcYOeVsTrZ8fNWYKB7v6lE19+wfei+v8l4Iuz3DtLFEl1Hhxt1cbFZjyaC0+iHEWCTyF8K5xvhbm7je4a3d8WWZ6fcsbEGi28nNx4k7ldaY1fnpLCWIsbuaRYsPQOGV+hzSmjdFy1Mgihbie4OIFwMgLk3OQT3Ndmy14c0jtrtzF9qShsoytB9Fg69T+Y1z26DdUs5SchXW1uo9e2SOI05L5cRYGujcLNtcuINmj3hmbItd2YaSYwv2bH2FyxkgL/AEC56AlVCJ/5Soo4X/lPsXCuKG5dBoHVGtrbmnhJaCQ57iGMBG8Ynbz0FymNY9QK6jjMssbXRi2N8bg8MvkMQyIHW1kbWOq6VDWuq60XKFQRFFaiCiVEqZUSiRBRUbqdlqy5arcvuoYFGNyaZZIcaChJypfZrRjTmFQc1AHWhEiULFsNRiFuKIuNh4nl/RaSnxMfK8RxglxNADcn7/lRjby3+QKdEeA2J97MkHgeRIU3vETThzJyF7i5vv6NF/uSsGXjmTxJ5pW4tet2p2bF2bGI5jmncLoGmsHhRc48tgBuNibjRFc+nljniNnxOxNvuPAtPQgkeK9m0Dr3R1QDHOEUjhZ0cpABJ3hrz7rh039FRah6p0FVRxTSRF8hxtlO0kHvNcRazXC2WHzXB6f1bqYJ5YzTyFge/ZOaxz2uZc4LOAOdrZb1aziQtzDUHpa8mLjYZucUWnlr9F6tpzs+pJwXRjYPO4x/Ae+PdbusvKdOaIkpJjFMBiAxNcPhe07nNPgV3vZLBWs2omEjacNbsmyhwIff92HZhtr34bkzrpTRVOlNG0z7H3al8w5sABa09CWOHmtmhbLHmAo+znzRz4aOaMSNblJI95r7KW1Z1uLadsVNo+ZwjaQHNOJrnWzc4ho3nerDVOo0w6cGraBC4OxAtjbgNjhw297fYZ3T2u+sbtHQRGGAPxuwNHwxxgC+eEeQy4qGoela2qEk1S1jYzhEAYwtuc8TruJJG4eaaNHBmY2OQAA8dPmqGintjLzY5AUK7+5U/a5VCH2GZgbtY5nOjxC4sACQRxGLCuw1aq5ZaWGWfDjkZjdhGFoBuW2BPy2XnPas4z19NTN3sYAP9crx+DWr0HWWoFNQTublsoS1nfhwM9SFrH3I7oK/n3I43XPIeQrxNfQUvKqjtCnqJHMmjjkpRLi2bQWuexj7xtc4k8Q0nLOy6qv1w0hPEG0VBLG9xH6yRuJgZb9nIXO7fkqzsZ0RE4SzvaHOiLGsuL4SRcutz3W8Vaa569VVPVGlp6dpIDCHyB7sZcL/q2ttcDde5zBQMe7IXvdQO3d9+pTMc8RmWR9A9Br3a8udLoNSZK90TvbxZ4cNmbMDi22eIMy3rg6yjZLrHs2AWa+KSQDdiZC17vMht+pXp2rzpzTxOqrCZwLpABhDbkkNt0Fl572WSipr9IVRF7vdhPIPecI+yyyY4aNB6jf2/Kj3WnyNBbGzXU3rvQ1N/fRd7rNpiKkgM8wxYCNm3K75D8LW3478+ABK82i1wq9IyxUjo444p5IsYZiL9m12JzS4mxFhnkNya7Za681LTg5Ma+Z46uIYw+Aa/zSnZRT46xz7XELHOB5FwwD0LlPLO4zCJu3P5qfETvdOIRsd+/r7l2napXbLRs9t82ziH+9wxD7Icjam6FjoKQF4Afs8dQ87xZuLDfk0fiuc7YdIAOoYDuMhmkHDCyzQCOuJ3kuv1zgfJQ1TIwS58Lw0DMkEZgW3ki6q0LyeYHx1VdgzPdzaB77XmNT2pVr5TJC2NkId7kbm3c5v03XuCelrdV0+sOu1BUU8kIMjnvaNmBG/3ZBYs942/asL964TVLVaSqeGAOawfG8tNmgbuVz0V/prVNtAYZXzteHSNAbsy1xAOJxtciwAz7wvPE07ml1W3v5Dn00Xmec4h0bngW3new++fsXougdGMo6cYrBwZjnfzIBLrnkLmy4Kq1/q5HOfAI44hfAxzcTnC+ReeF+QXoesdM6WlnjjzdJG4M63G7x3eK8o0fouV7mxsj9+wBBaRh4nFfdZZj5ZIAxkIr1DpyRdpzSYZscUArloOnLxXqFG5lfRNMrBhqGEPbvwuBIJaejm3B6BcL2QUBE9U52ZpwIb/AEi51z/w9V35dFRUl3G0dOwknmd+XUuOQ6qg7KKc+xund8VVLJIe6+G3mHea9AttzSdx/o/FegWXJHm/EBZ9n1Vb2na8S0j2UtLhEr245JHAO2bSSGhrTkXGxOd7Dhnl0fZ9pGeooYZqlwdI8ye8GhuINe5rSQMr5cF4zrpV7fSNZJe4Ehjb3RAR5dLtJ8V7bBaj0cCf/i0+J3+pkdz5m/mhjkLpHDkFkMrnzP10C8u127SqllTJT0BZFFTvcwuEbHGSQE48nAgNxXGQuczfNeoa0TYdG1T5gCRSTbRvAuMRu0d5yXgupejjPW0rHZ45mvkvxDTtH38Gleu9tFds9GPYDY1MkMQ7sW0d6RkeK2OQuDnFbDKXBzjsvntjcgolqa2agWKS1EHpUhZZMFijs0QKPOgWW8KYEKkKddmC4yBHMBCxt0/IQgEKZsl7qMSEjVQDlslSDFsxorCywglPUTf1d/mIxdbD+qULVOGfCd1w7eN27rzzQSCxQXv+TmOgwePbLP8Ahoi/yk8/iD3FGrGEhrvkx37nFtj/AMUo16fjqWHMPseRuPX8kV0RcM4734+8L+ItdLBy6EL67tfydZ2rL53hJm2QLG7TWgIIJrTQij101t3VLXCooHuMYD43kGSJxsCR+00j4XW4+YNgvRabtjoyP1kFQx3ENDHjwOIfcvKPYGfI4eP5rBo9vJ32f6qmPFFooaj7714zfJXtaIU3IfU76tC9L0t2xMwkUtM8uO50xa1o64Wkl3dcLz2n03UCqFa6TFOHh5c7ceGGw3NtlYcEAaPA5/Yd/Mo4Ix+8afAfzLJMQ96ln8m+1zq5oA/W0fNetU3a1SuZ+sgnD7ZtaGPbfo4uGXeEGj7Vm4pDNTPaz3diGFrnWzxYy4gcty8odURDiT0DHN9XFCdWXOQwjvJ9URxM3LReZim4mAayRk9GuDj41YHiQu5rtZ4JdJR1uyk2bAwuYcOMuY02tY2tfDx4FN68a/R1tK6mihlYXvjL3PwWwtOKwwk53AXnr6ghSZNcHNKE8gB21XljEygO29LddRqZrW+gkcS3FFJhErL2NxucwnK4ucuK7HSXa/StbeGCaSS3uh4axoPV1yfILyCTMDPioyx5ZI4sQ+NuVMhxL4m5QV61Q9rkZiaJ6aUyFp2hjwYLn5cTr2tzXP8AZ/rrT6Ohkjkjke6STEC3B8IADQbkZ/F5rhWPshTZu8kwYh5dyRDEyFwJ5LpNatO+2VUtQA5rXBjY2utdrWtAsbZb8R8Vbai64w6PExkikkdNsgMBbYBuLmebvRcixoO5FMV8lMJi2TPzUwmLZOJzV1rfrC3SFUJ2tcxrY2Rsa8jFkXOJyyzLvRdTqr2ivgjbDUxvkYwARystiDRuDmuIDrc7+a88ip8wi7MjcV3nLhIXg6+5Z509she06let1PapT2/VQTPdwDg1jfF1yfRcLpTSFRVTbeci9iGMF8EbeTb+p3lULJHD9ojxKkZzcXN0M000wy6UlYnEzzjKSKXpGr+ur4IxHKzasYLMLCNoANwLdzh4hXT+0emtlDUE8AYwPXEvHhVkbiR4pmCquFrcVPEyrB6WFsePxULMtg+sLqNZNYJq4YXgRxA3bGDclw3OkdbPuGSstF9o0NNBHAKaQmJuG4LQ0u4nfe17rlY5LtuP7tmkq5ox3G52fnvSYMZLxHE6k/LkkQdoTiVzibJ+9Ejo04XtklBcNo18oFruGLE4Z8Tmu21v7RW1dJNTRU8rHTYGl7iywbjBcMjxAI8VxZClhTGYp7Lrmnx4t8YcG80/qdpeOiqG1EkbpMDHtaGWBDnWF8+mLzTOv+tw0l7O1kT4mQmRzg8tOJzgA21uQxeap8CgWLmYt7WFoWsxj2xmMbKudAhugViWKJjQiUoRKq72dbFOnxGpiNaZit4xSIgUhEnMCgWoeJaHiWk1NkaKyNHY1c561z6QmRKZYjWQnlACUrMSlZWpZyZmKVeq2ajVUxqJYCtClHyjxC0sxEcV2vIpwBBsbopid1/vwWtkf7/wsjqHXA52Cfla5o/Y65FA5xbuifi8Q3QvP+RVb7KPkb9lR2B4C3imhUm5HuZAHjx/wsM5+r8itzOHJJJcdSLS5xIefJNbY/V+RWhMPq/IrQT0RhzhyQw11m347+KK024HyRWzHlH6qW1P1fkUBcTySy8nkl5QThtuP+FCdx3Z5W7k1j/6XkVO/wD0vIrg8jksEhHJV1752z5KbQTv3p4X+q8ipYj9V5Fdxe5aZu5L6OZZ1zusfvVm8/LvBtmEsKgj+F5H81MaQt/C8j+aXIXPN0p5Mz3XSakaBhz3i/FDe/LK987ZcVkekb/wvI/miGu4/qfI/mkekNwkU8bj3oVPC5wud+aBM4A2zy6Jk6RH1Xk780vJXj6r7J/NNBeSdE1gkJ1alpHDn6FSZUclF1WTu2XkUM1Dvq/IplE7hPokahXdHV5W6D8fzWySR3E+SpWVjh/D8imqaved2y8j+aSY3NsgKZ8DhZAT7Yip7NVE2nng4bM6kBBl0o88Vow8h3oLRhZjqaCuXkDil3zjmqN9UTxQ/aCnNwvUqhuEPMq8M4UdsqcVBW/aEXm6LzalciUKYlCpPaVr2orPNisOGKu3ShAknVWatCdUIm4Yom4YqbdJydPJEGlJPo+SrLdVou6qjgs6K3gR9ArT9KS/Q8lE6Qm+h5KrMnVa2p5reA3oFnmrOgVmaqQ8lHav6Ku2juZW8T+a3h1tSPgAdE+Xv6LWJ3JJY5OqwTyBdw/Uu4R7k7icpTTyuyLikhVv5KftjuSzhnoFnCd0CNBSyOdk43P3BDqI5G8Stw6Se03AWTzvfmtp4drVLqkza1SV2zuJKb2fuhwec+qRfC7irDR9HtBhL7FvDpzCKSgLTJS1rc10PV/CUfO4ftFQbWHi4+CdqNFBv7aRlpgOK1jo3LWPjf8A6Rfaj8zlgq3fMUmMkZpHBGWDojLGjkmBVH5nqYqfpv8ARKjuWwEOUIDG1Nbf6cnohuqyD8RWQgX3KNQwX3IQG3SFrWg0iiqHzyei37X9OT0SjQOSwjot4bVvCamTV/Sf6KLqw/MfRLlvRDIRBjUYiamDVH5ioGpPMoOFRcEQY1GGNRTVO5lbZWPG4lLhqnhKLK3oiLW9EUVTr33nqt+3O6JchRsV2RvRdkb0TJrHdFr2spYhZZdkb0W8NvRNirK37UUsAVuxXZQh4bUz7S5aNS5L2KiuyBdkHRNe0O6LNu7olwtgFZlCzIE0bqOFMYFmySsyTmS4YFMMai7ErRhK7MOq4u71oYVvatCg6JDMa4AFcACj+0DktibolxGURkBXFrQuLWqyomMdvCsP0W3kqmmjLTdW7a91rKOYOv0SoJ84d6BU2aIjKUdQtY/pxTArSgVFQXJTOJep0Smca/SOifn0Ex7Q5rt4SUerxvfHYjct0de5mR+E+nVMVcj94KwGZhy5kIdOw5c2nJGZoRjxm73h8Y/EdFCo1aZa43qq9qka4OBNx/dir6n0riZcePQ8lkgnZRDtEMoxMdFrrH39hUn6BF7FaOhg05HwKdqNIFVtRVOPEpzHTO3KojdO7cqxbodpbcEdQko6BuKxKR/SDwciVttaTmmCOUXZTRDMLtyt2aHBdkeBUmaLbis5I0ukn3Raqvde6UWy3VpJZPdWmanRDWm43JiHRseG+V1XM0o4ggoBrXDcVnDlIolZwpyKLlYOo28krU6OHJANc5QfWuKY1kgO6YyOUHdWUWh2lt7i6r36PGKyyKrcOK17SSVrRICdUTWzNJtydOg22vdah0Wx1xdBFU45XQ3SuG5DUp3chAmOhcgVOjsLrI7tFjBiuEKSZx3oTp3Wsn/1DWqf/VIGqVNPmn6OjYRmbJB8hWmylNcHOG6e5r3Dek7JSgFOM0bGW3JzVWJitmUpbmPPNKdHIQKdSapqaMusSg19EGnI3CBiKi95RBrs12jDXh1gqErAAg40RwJQi1Pb3qlo01Vs1iKxpQmOR2PUzgoXWphpWGJTYUVoSSSEguIST4kJzFaGK6BLTrWvCJsvVIhqNGFp0dloIzqmnVONaFlksJCs2pSy0pWQplYSldoVNj12VcWFGwqx0e642bv/AKz9wSMJTTSlvbYU8uopbq9HkXyQqBmF9judke/gf75q6opsfuu38Dz70aWgHJSmci2PSo5XOuN6qazRpHBVslIeS7mjgD22PxNGfUc0rV6PCXHjaOUoopJG+i5cLUUZ32QmUx3gLrpqUckpJRAZhWsxdilUMTQopXQ1DjJPK1/H/Car9GgK11epwS/w/FP6QpQo5MURLS898shlsbLivYc9yi+hV/JEAUtPZUNncSnDEuJVC+nQzGnZ3JR5VbSVaxxIUWtCiAtgqCJMATMSlMAhxlbmOSCtUuvSUCEN4CiXKDimgJoaouaEMgIhUCEwJoWgVIFRstWWotFNQcsUbLl1LLrCFllvCtWr/9k=;" vertex="1" parent="1">
          <mxGeometry x="651" y="-890" width="318" height="159" as="geometry" />
        </mxCell>
      </root>
    </mxGraphModel>
  </diagram>
</mxfile>
